{"title":"Night of the Flesh Eaters (2010) WEBRip","uid":8299606,"size":1023153823,"categoryP":"video","categoryS":"movies","magnet":"?xt=urn:btih:7c80461e8642eac0ac82e9e65522ad657860e6cd&amp;dn=Night+of+the+Flesh+Eaters+%282010%29+WEBRip&amp;tr=udp%3A%2F%2Ftracker.openbittorrent.com%3A80&amp;tr=udp%3A%2F%2Fopen.demonii.com%3A1337&amp;tr=udp%3A%2F%2Ftracker.coppersurfer.tk%3A6969&amp;tr=udp%3A%2F%2Fexodus.desync.com%3A6969","seeders":0,"leechers":1,"uploader":"RadioResearch","files":3,"time":1364236416,"description":"*******************************************************************************\n                    Night of the Flesh Eaters (2010) WEBRip\n*******************************************************************************\n\n-------------------------------------------------------------------------------\n                              General Information\n-------------------------------------------------------------------------------\nType.................: Movie\n\n\n\nVideo Format.........: MKV\nVideo Bitrate........: 1666\nResolution...........: 640 x 480\nColor................: 8 bit\nFPS..................: 29.97\nSource...............: WEB 4:3\nOriginal Format......: NTSC\nGenre................: Horror / Comedy\nIMDb Rating..........: 3.3\nMovie Information....: http://www.imdb.com/title/tt1315052/\n\n-------------------------------------------------------------------------------\n                               Post Information\n-------------------------------------------------------------------------------\nPosted by............: RadioResearch\nPosted on............: 3/25/2013\n\n-------------------------------------------------------------------------------\n                                 Release Notes\n-------------------------------------------------------------------------------\nSEEDBOX SUPPORTED!!\n\nOn the most evil night of the year, a beautiful blond woman and ruggedly \nhandsome archeologist hitman find themselves trapped in a forest haunted by \nbizarre flesh eating Native American demon zombies. As they flee the woman's \ncrime boss husband, who seeks to murder them for their illicit love affair, \ntheir car is destroyed in a head-on collision with one of the demons, a Stone \nMan. The blond woman and assassin must escape the perils of the dark and evil \nforest, on foot, without becoming demon food or getting themselves slaughtered \nby the woman's vengeful, fat cat husband. \n\nThis is one of those films that belongs in the &quot;so bad it's good&quot; categories.  I \nlaughed like hell during the film, and it it had had any kind of budget, we \nmight have been looking at another Evil Dead or Feast hit.  As it stands, the \none liners, corny character acting, and overall goofiness of the film make it \nworth a view.\n\nEnjoy!\n\nRadioResearch\n\nGeneral\nComplete name                            : C:UsersDX-HOMEDocumentsiSkysoft \nDRM RemovalOutputNight of the Flesh Eaters (2010)Night of the Flesh \nEaters.mkv\nFormat                                   : Matroska\nFormat version                           : Version 1\nFile size                                : 976 MiB\nDuration                                 : 1h 21mn\nOverall bit rate                         : 1 666 Kbps\nEncoded date                             : UTC 2013-03-25 11:13:55\nWriting library                          : WonderShare Matroska Muxer\n\nVideo\nID                                       : 1\nFormat                                   : AVC\nFormat/Info                              : Advanced Video Codec\nFormat profile                           : &lt;a class=&quot;__cf_email__&quot; href=&quot;/cdn-cgi/l/email-protection&quot; data-cfemail=&quot;b0f2d1c3d5dcd9ded5f0fc839e80&quot;&gt;[email&amp;#160;protected]&lt;/a&gt;&lt;script cf-hash='f9e31' type=&quot;text/javascript&quot;&gt;\n/* &lt;![CDATA[ */!function(){try{var t=&quot;currentScript&quot;in document?document.currentScript:function(){for(var t=document.getElementsByTagName(&quot;script&quot;),e=t.length;e--;)if(t[e].getAttribute(&quot;cf-hash&quot;))return t[e]}();if(t&amp;&amp;t.previousSibling){var e,r,n,i,c=t.previousSibling,a=c.getAttribute(&quot;data-cfemail&quot;);if(a){for(e=&quot;&quot;,r=parseInt(a.substr(0,2),16),n=2;a.length-n;n+=2)i=parseInt(a.substr(n,2),16)^r,e+=String.fromCharCode(i);e=document.createTextNode(e),c.parentNode.replaceChild(e,c)}}}catch(u){}}();/* ]]&gt; */&lt;/script&gt;\nFormat settings, CABAC                   : No\nFormat settings, ReFrames                : 1 frame\nFormat settings, GOP                     : M=1, N=25\nCodec ID                                 : V_MPEG4/ISO/AVC\nDuration                                 : 1h 21mn\nBit rate                                 : 1 505 Kbps\nWidth                                    : 640 pixels\nHeight                                   : 480 pixels\nDisplay aspect ratio                     : 4:3\nFrame rate mode                          : Variable\nFrame rate                               : 29.970 fps\nOriginal frame rate                      : 29.000 fps\nColor space                              : YUV\nChroma subsampling                       : 4:2:0\nBit depth                                : 8 bits\nScan type                                : Progressive\nBits/(Pixel*Frame)                       : 0.163\nStream size                              : 881 MiB (90%)\nDefault                                  : Yes\nForced                                   : No\n\nAudio\nID                                       : 2\nFormat                                   : AC-3\nFormat/Info                              : Audio Coding 3\nMode extension                           : CM (complete main)\nFormat settings, Endianness              : Big\nCodec ID                                 : A_AC3\nDuration                                 : 1h 21mn\nBit rate mode                            : Constant\nBit rate                                 : 128 Kbps\nChannel(s)                               : 2 channels\nChannel positions                        : Front: L R\nSampling rate                            : 44.1 KHz\nBit depth                                : 16 bits\nCompression mode                         : Lossy\nStream size                              : 75.0 MiB (8%)\nDefault                                  : Yes\nForced                                   : No\n\n\n\n\n-------------------------------------------------------------------------------\nGenerated with Cool NFO Creator - http://fly.to/coolbeans\n-------------------------------------------------------------------------------\n","torrent":{"xt":"urn:btih:7c80461e8642eac0ac82e9e65522ad657860e6cd","amp;dn":"Night+of+the+Flesh+Eaters+%282010%29+WEBRip","amp;tr":["udp%3A%2F%2Ftracker.openbittorrent.com%3A80","udp%3A%2F%2Fopen.demonii.com%3A1337","udp%3A%2F%2Ftracker.coppersurfer.tk%3A6969","udp%3A%2F%2Fexodus.desync.com%3A6969"],"infoHash":"7c80461e8642eac0ac82e9e65522ad657860e6cd","infoHashBuffer":{"type":"Buffer","data":[124,128,70,30,134,66,234,192,172,130,233,230,85,34,173,101,120,96,230,205]},"announce":[],"urlList":[]}}